<?xml version="1.0" encoding="utf-8"?>
<!-- Generator: Adobe Illustrator 17.0.0, SVG Export Plug-In . SVG Version: 6.00 Build 0)  -->
<!DOCTYPE svg PUBLIC "-//W3C//DTD SVG 1.1//EN" "http://www.w3.org/Graphics/SVG/1.1/DTD/svg11.dtd">
<svg version="1.1" id="Layer_1" xmlns="http://www.w3.org/2000/svg" xmlns:xlink="http://www.w3.org/1999/xlink" x="0px" y="0px"
	 width="480px" height="480px" viewBox="0 0 480 480" enable-background="new 0 0 480 480" xml:space="preserve">
<rect fill="#FFFFFF" width="480" height="480"/>
<g>
	<g>
		<polygon fill="#F09A50" points="381.416,212.993 356.551,169.95 381.416,126.906 431.119,126.906 455.97,169.95 431.119,212.993 
					"/>
		<polygon fill="#66B5C5" points="195.406,115.495 175.214,80.576 195.406,45.651 235.71,45.651 255.88,80.576 235.71,115.495 		"/>
		<polygon fill="#66B5C5" points="440.084,56.386 429.475,37.988 440.084,19.597 461.328,19.597 471.957,37.988 461.328,56.386 		
			"/>
		<polygon fill="#66B5C5" points="342.749,80.406 325.702,50.888 342.749,21.354 376.828,21.354 393.888,50.888 376.828,80.406 		
			"/>
	</g>
	<g>
		<path fill="#F09A50" d="M225.842,238.022c0-5.521-4.497-10.017-10.025-10.017c-5.514,0-10.01,4.497-10.01,10.017
			c0,5.514,4.496,10.011,10.01,10.011C221.346,248.032,225.842,243.536,225.842,238.022z"/>
		<path fill="#A4A8AB" d="M314.525,461.399H109.554l-0.761-1.33l91.113-66.966c4.333,3.614,9.847,5.876,15.915,5.876
			c13.802,0,25.036-11.234,25.036-25.029c0-13.803-11.234-25.037-25.036-25.037c-13.788,0-25.029,11.234-25.029,25.037
			c0,0.391,0.106,0.761,0.121,1.145l-92.145,67.613l-27.882-48.301l81.548-58.809l12.65-53.587l32.535-20.184
			c1.273-0.79,2.839-1.807,4.319-3.002c3.977,2.661,8.758,4.226,13.881,4.226c13.809,0,25.043-11.227,25.043-25.03
			c0-13.802-11.234-25.029-25.043-25.029c-13.788,0-25.022,11.227-25.022,25.029c0,1.437,0.192,2.825,0.434,4.205
			c-1.26,0.775-40.062,24.872-40.062,24.872l-3.33,2.07l-12.657,53.651l-74.333,54.22L7.075,283.897l102.478-177.494h41.414
			l24.382,42.246h80.394l24.403-42.246h34.378l18.484,32.023l-17.872,30.963l44.253,76.645h35.751l21.863,37.863L314.525,461.399z"
			/>
		<path fill="#F09A50" d="M225.831,373.95c0-5.521-4.482-10.017-10.01-10.017c-5.514,0-10.01,4.497-10.01,10.017
			c0,5.514,4.497,10.003,10.01,10.003C221.349,383.953,225.831,379.464,225.831,373.95z"/>
	</g>
</g>
</svg>
